<?xml version="1.0" encoding="UTF-8"?>
<svg version="1.1" xmlns="http://www.w3.org/2000/svg" width="2000" height="2000">
<path d="M0 0 C660 0 1320 0 2000 0 C2000 660 2000 1320 2000 2000 C1340 2000 680 2000 0 2000 C0 1340 0 680 0 0 Z " fill="#FEF100" transform="translate(0,0)"/>
<path d="M0 0 C225.39 0 450.78 0 683 0 C683.03738281 86.71910156 683.07476563 173.43820312 683.11328125 262.78515625 C683.14173689 314.32419629 683.17038009 365.86323466 683.20281637 417.40227211 C683.20383484 419.02240614 683.20485317 420.64254017 683.20587139 422.2626742 C683.20663724 423.48120006 683.20663724 423.48120006 683.20741857 424.7243426 C683.22544805 453.42367693 683.24328263 482.12301138 683.26077582 510.82234604 C683.26244712 513.56147494 683.26412354 516.30060385 683.26580121 519.03973275 C683.29146328 560.96931742 683.31463531 602.89890156 683.33044434 644.82849121 C683.3307842 645.72976736 683.33112406 646.63104352 683.33147423 647.55963107 C683.33693823 662.09032103 683.34218957 676.62101106 683.34741267 691.15170111 C683.36246511 733.01865285 683.37909728 774.88560129 683.40612316 816.75254726 C683.40667849 817.61401601 683.40723382 818.47548475 683.40780597 819.36305861 C683.42002677 838.27712765 683.43305584 857.19119604 683.44684957 876.10526399 C683.45238598 883.71634432 683.4578061 891.32742473 683.46318626 898.93850517 C683.46377789 899.77149022 683.46436952 900.60447527 683.46497908 901.46270229 C683.48396467 928.27480582 683.49349488 955.08690243 683.49803595 981.899012 C683.5026561 1008.92138567 683.5166103 1035.94373728 683.54342634 1062.96609854 C683.54713502 1066.70566025 683.55073736 1070.44522206 683.55427551 1074.18478394 C683.55532159 1075.28431431 683.55532159 1075.28431431 683.55638881 1076.40605743 C683.5671287 1087.98366915 683.56786734 1099.56125875 683.56436801 1111.13887401 C683.56112939 1122.5410813 683.56887832 1133.94322965 683.58732411 1145.34542653 C683.59687128 1151.43768969 683.60178042 1157.52985565 683.59339563 1163.62212277 C683.58584394 1169.17708765 683.59231632 1174.73186204 683.60944067 1180.28680405 C683.6131971 1182.2718629 683.61207935 1184.25693939 683.60515601 1186.24198972 C683.54394955 1205.30952573 685.74059849 1223.95908607 689.9375 1242.5625 C690.19692383 1243.74432861 690.45634766 1244.92615723 690.72363281 1246.14379883 C692.29357626 1253.18763122 693.99110353 1260.15130123 696.140625 1267.04296875 C696.84443858 1269.46472729 697.40840451 1271.83706684 697.9296875 1274.30078125 C698.94627118 1278.97950991 700.34076258 1283.46809869 701.875 1288 C702.11863281 1288.7425 702.36226562 1289.485 702.61328125 1290.25 C704.13832693 1294.80143167 705.89830245 1299.17209031 707.88818359 1303.5390625 C709.14076615 1306.31157726 710.33248107 1309.10672325 711.5234375 1311.90625 C720.76163021 1333.38268388 731.48724533 1353.87587572 745 1373 C745.840132 1374.20943523 746.67997051 1375.41907439 747.51953125 1376.62890625 C752.69413431 1384.03084277 758.17514335 1391.09324626 764 1398 C764.92102522 1399.10769699 765.84157754 1400.21578732 766.76171875 1401.32421875 C771.11687763 1406.54773068 775.48751403 1411.67400399 780.39453125 1416.39453125 C782.18303851 1418.18303851 783.80224333 1420.0707646 785.4375 1422 C788.3362636 1425.35510997 791.41856451 1428.24898599 794.80078125 1431.109375 C797.2480876 1433.21327602 799.58363917 1435.41714264 801.9375 1437.625 C809.21907919 1444.26766625 817.0855968 1450.13763127 825 1456 C825.87269531 1456.64710937 826.74539063 1457.29421875 827.64453125 1457.9609375 C830.06263464 1459.6972289 832.51761067 1461.35667916 835 1463 C835.60344238 1463.40476562 836.20688477 1463.80953125 836.82861328 1464.2265625 C884.91904052 1496.29448255 942.02138182 1516.60627697 1000 1519 C1000.95712891 1519.04366699 1001.91425781 1519.08733398 1002.90039062 1519.13232422 C1011.59788618 1519.52158826 1020.29655889 1519.79197185 1029 1520 C1029.70775574 1520.01780518 1030.41551147 1520.03561035 1031.14471436 1520.05395508 C1051.21722328 1520.5464768 1070.21485092 1519.87479935 1090 1516 C1092.19764071 1515.59744887 1094.39556222 1515.19642796 1096.59375 1514.796875 C1108.37635508 1512.60195599 1119.64951264 1509.83411112 1131 1506 C1133.26944214 1505.32861273 1135.54022878 1504.66174916 1137.8125 1504 C1142.86883905 1502.45239685 1147.59878476 1500.52565932 1152.3671875 1498.24609375 C1154.91286815 1497.04123896 1157.48952482 1495.93136455 1160.08056641 1494.82836914 C1193.72461078 1480.3086232 1224.02999754 1459.72578328 1251 1435 C1252.08954274 1434.01529184 1253.17940304 1433.03093497 1254.26953125 1432.046875 C1259.54195781 1427.26460813 1264.6904282 1422.52063287 1269.265625 1417.05078125 C1271.41745018 1414.50639336 1273.67731877 1412.07352967 1275.9375 1409.625 C1299.67068928 1383.53278889 1317.5075614 1353.01417552 1332 1321 C1332.49113281 1319.96617188 1332.98226563 1318.93234375 1333.48828125 1317.8671875 C1335.83943485 1312.88745806 1337.77033335 1307.99397828 1339.2265625 1302.6796875 C1339.89267892 1300.3718296 1340.62745289 1298.11394758 1341.3984375 1295.83984375 C1343.99520652 1288.11178254 1346.13920603 1280.24707223 1348.33056641 1272.39648438 C1348.86407773 1270.48658389 1349.40532914 1268.57884598 1349.94921875 1266.671875 C1351.6064436 1260.5340052 1352.6597883 1254.33959148 1353.625 1248.0625 C1353.74834717 1247.26384521 1353.87169434 1246.46519043 1353.9987793 1245.64233398 C1356.34866294 1229.52489673 1356.41947357 1213.25474008 1357 1197 C1397.92 1197 1438.84 1197 1481 1197 C1481 1387.41 1481 1577.82 1481 1774 C1213.7 1774 946.4 1774 671 1774 C670.67 1762.12 670.34 1750.24 670 1738 C667.17115842 1705.84053788 662.16308071 1673.38063182 652.73583984 1642.45361328 C651.90160194 1639.67189765 651.09936923 1636.88200017 650.30078125 1634.08984375 C646.34807719 1620.28399103 642.35164481 1606.74909983 636.22265625 1593.72265625 C634.98888265 1590.97524347 633.95959212 1588.20743978 632.9375 1585.375 C619.9378878 1551.19533426 599.86413254 1519.15697149 578 1490 C577.54109375 1489.38801758 577.0821875 1488.77603516 576.609375 1488.14550781 C570.93089217 1480.608992 565.05350697 1473.23853281 559 1466 C558.55962402 1465.47325684 558.11924805 1464.94651367 557.66552734 1464.40380859 C545.42414097 1449.81207604 532.62512893 1435.25243414 518.12890625 1422.85546875 C516.6111648 1421.53266657 515.12164875 1420.1771851 513.65234375 1418.80078125 C506.18183746 1411.8035197 498.1973723 1405.67099284 490.01904297 1399.53125 C488.23465922 1398.17796646 486.47323922 1396.80278861 484.72265625 1395.40625 C451.15568527 1368.79459733 411.09811594 1349.06240014 370.92822266 1334.70214844 C368.38609669 1333.77645152 365.87925889 1332.77324557 363.375 1331.75 C356.87368761 1329.11341924 350.427057 1327.0221999 343.55859375 1325.59375 C340.45621048 1324.87380762 337.42798935 1323.96912451 334.375 1323.0625 C327.95734955 1321.18893756 321.54940742 1319.83230698 314.984375 1318.61328125 C312 1318 312 1318 310 1317 C307.53589396 1316.57582773 305.08026574 1316.19383651 302.60546875 1315.84375 C301.86226883 1315.7365564 301.11906891 1315.62936279 300.35334778 1315.5189209 C298.77235519 1315.29195086 297.19110303 1315.06678281 295.60961914 1314.84326172 C293.2343363 1314.50663762 290.86032632 1314.16195846 288.48632812 1313.81640625 C286.94277919 1313.59585768 285.39916119 1313.37579187 283.85546875 1313.15625 C283.16325729 1313.05517944 282.47104584 1312.95410889 281.75785828 1312.84997559 C271.06897756 1311.35753975 260.36214928 1310.84021238 249.578125 1310.796875 C247.86348053 1310.78832489 247.86348053 1310.78832489 246.11419678 1310.77960205 C243.70748803 1310.77022372 241.30076686 1310.76364692 238.89404297 1310.75976562 C235.30021343 1310.75013457 231.70697544 1310.71907123 228.11328125 1310.6875 C194.59688252 1310.5345379 161.70873303 1316.25749772 129.5625 1325.5 C128.56742432 1325.78464111 127.57234863 1326.06928223 126.54711914 1326.36254883 C120.19587993 1328.22599699 114.10285906 1330.4446248 108 1333 C107.2258374 1333.31372559 106.4516748 1333.62745117 105.65405273 1333.95068359 C76.04887727 1345.9628595 49.38802002 1361.71699995 24 1381 C23.36803711 1381.47743652 22.73607422 1381.95487305 22.08496094 1382.44677734 C15.49784654 1387.42776319 9.02808349 1392.54107359 2.6640625 1397.8046875 C0.92081675 1399.24120379 -0.83406388 1400.66374453 -2.6015625 1402.0703125 C-19.52299519 1415.5974755 -36.58950763 1431.13783046 -49.84765625 1448.3125 C-51.75942046 1450.69960305 -53.74399433 1452.95406062 -55.79296875 1455.22265625 C-59.86895395 1459.78229677 -63.60117213 1464.53219005 -67.25 1469.4375 C-67.89839844 1470.30802002 -68.54679688 1471.17854004 -69.21484375 1472.07543945 C-94.44955547 1506.21852497 -117.38361956 1544.55978659 -130.62109375 1585.05859375 C-131.71002821 1588.32885957 -133.03114661 1591.46816004 -134.38671875 1594.63671875 C-147.01330415 1624.63217019 -153.07468524 1657.2227696 -157.42504883 1689.31152344 C-158.14013067 1693.89897838 -159.08946159 1698.44730797 -160 1703 C-162.24581731 1726.58108173 -162.52633904 1750.31695213 -163 1774 C-205.9 1774 -248.8 1774 -293 1774 C-293 1569.07 -293 1364.14 -293 1153 C-192.68 1152.67 -92.36 1152.34 11 1152 C37.11774453 1150.62496957 37.11774453 1150.62496957 63.0625 1148.0625 C64.49321141 1147.88571072 65.92395766 1147.7092031 67.35473633 1147.53295898 C76.9678864 1146.33242112 86.51721324 1144.99603021 96 1143 C96.84433594 1142.82355957 97.68867188 1142.64711914 98.55859375 1142.46533203 C104.40694153 1141.23393903 110.24313922 1139.95244216 116.07568359 1138.6484375 C118.89792777 1138.02263348 121.7235726 1137.41542347 124.55078125 1136.8125 C136.89867156 1134.14474592 148.92538347 1130.7933026 160.96142578 1126.96337891 C164.17686858 1125.94392388 167.39849537 1124.94580671 170.62109375 1123.94921875 C172.83098131 1123.25861883 175.0406228 1122.56723092 177.25 1121.875 C178.26102783 1121.56264404 179.27205566 1121.25028809 180.3137207 1120.9284668 C186.15587253 1119.07546438 191.67452544 1116.88902713 197.22167969 1114.28564453 C200.05947003 1112.97248074 202.92272523 1111.75660203 205.8125 1110.5625 C230.04542859 1100.54087903 253.39470883 1089.3031855 276 1076 C276.91491211 1075.4642334 277.82982422 1074.9284668 278.77246094 1074.37646484 C288.09316325 1068.90547398 297.25851011 1063.3657997 306 1057 C307.30308028 1056.08494654 308.6079423 1055.17242786 309.9140625 1054.26171875 C325.18902902 1043.59936184 339.75610095 1032.20899847 353.9375 1020.125 C354.46206787 1019.67979004 354.98663574 1019.23458008 355.52709961 1018.77587891 C365.58557237 1010.15433083 375.15550987 1001.03116847 384.51928711 991.66601562 C386.1917165 989.99578905 387.87203669 988.33377621 389.55273438 986.671875 C395.41818848 980.83617756 400.92416328 974.92116913 406.05444336 968.41918945 C408.06970294 965.91332835 410.19224547 963.54807255 412.375 961.1875 C417.93825663 955.06405433 422.98576671 948.57417745 428 942 C428.41942871 941.4534375 428.83885742 940.906875 429.27099609 940.34375 C448.18886511 915.56662757 463.99852744 888.9985062 478.2421875 861.31640625 C479.89349518 858.11196141 481.57099109 854.92933626 483.3203125 851.77734375 C487.48824945 844.26058524 490.81703502 836.73573014 493.6953125 828.65625 C494.77418219 825.63283074 495.91209785 822.65864015 497.125 819.6875 C498.85982798 815.41161694 500.43456337 811.0885096 501.97265625 806.73828125 C502.71692323 804.7545126 503.54338603 802.80095811 504.41796875 800.87109375 C506.53065082 795.98597051 507.8489364 790.87480602 509.25 785.75 C509.70234009 784.10451172 509.70234009 784.10451172 510.16381836 782.42578125 C510.79759618 780.10954269 511.42831883 777.79246624 512.05615234 775.47460938 C512.66745266 773.22421462 513.28459539 770.97539542 513.90869141 768.72851562 C520.79390846 743.93118219 525.70139659 718.55028701 528.65161133 692.97436523 C528.91402956 690.73397187 529.20527244 688.49692666 529.51049805 686.26196289 C531.34343909 672.0279167 531.34104033 657.7692685 531.31567383 643.44360352 C531.31107368 640.62573142 531.31786173 637.80829423 531.33618164 634.99047852 C531.49909922 609.65422215 529.61359097 584.83105833 525.74731445 559.75976562 C525.42583052 557.67430008 525.11558668 555.58735708 524.80664062 553.5 C520.58039963 525.20972763 513.45325321 496.98972294 504 470 C503.75217773 469.28295898 503.50435547 468.56591797 503.24902344 467.82714844 C501.62368965 463.16602946 499.84594243 458.57773926 498 454 C497.46995361 452.67137939 497.46995361 452.67137939 496.92919922 451.31591797 C476.98022609 401.66166419 449.35937366 356.03684111 415 315 C414.46568359 314.36126953 413.93136719 313.72253906 413.38085938 313.06445312 C408.30906938 307.02368753 403.23906893 301.0311777 397.5546875 295.55078125 C395.87571816 293.87603042 394.34962709 292.11807274 392.8125 290.3125 C386.12889134 282.57516926 378.76304408 275.32644269 370.98046875 268.69921875 C368.67330048 266.71969568 366.43353218 264.6735788 364.1875 262.625 C359.92389983 258.78193702 355.55447727 255.10677266 351.08984375 251.5 C348.84039335 249.67996428 346.60526208 247.84781118 344.37890625 246 C301.7360683 210.73568965 251.48761163 181.22985329 199.25341797 162.80419922 C196.49527601 161.81987423 193.75019914 160.80206489 191.00390625 159.78515625 C179.76553829 155.64554868 168.66107318 151.77265562 157 149 C154.49952878 148.37688792 151.99955154 147.7517911 149.5 147.125 C148.85635498 146.96547852 148.21270996 146.80595703 147.54956055 146.64160156 C141.43642474 145.12414089 135.34325961 143.53264283 129.25 141.9375 C127.26434759 141.41917631 125.2786713 140.9009441 123.29296875 140.3828125 C120.33602538 139.61116649 117.38017453 138.83606802 114.42578125 138.0546875 C100.96883106 134.56652852 87.35035858 132.51749848 73.5625 130.9375 C72.09053012 130.76553048 70.61860669 130.59316287 69.14672852 130.42041016 C66.98888424 130.16741935 64.83098578 129.91500956 62.67277527 129.66516113 C59.18156677 129.26048692 55.69410458 128.84001214 52.2109375 128.37109375 C41.25213436 126.93034013 30.24401961 126.32152488 19.21459961 125.69677734 C18.53679443 125.65765732 17.85898926 125.61853729 17.16064453 125.57823181 C15.29921247 125.47147473 13.43757545 125.3683088 11.57592773 125.26538086 C7.70494545 124.97810307 3.85165314 124.48145664 0 124 C0 83.08 0 42.16 0 0 Z " fill="#000000" transform="translate(406,113)"/>
<path d="M0 0 C660 0 1320 0 2000 0 C2000 660 2000 1320 2000 2000 C1340 2000 680 2000 0 2000 C0 1340 0 680 0 0 Z M57 57 C57 679.38 57 1301.76 57 1943 C679.38 1943 1301.76 1943 1943 1943 C1943 1320.62 1943 698.24 1943 57 C1320.62 57 698.24 57 57 57 Z " fill="#010100" transform="translate(0,0)"/>
</svg>
